<?xml version="1.0" encoding="UTF-8"?>
<svg id="Capa_2" data-name="Capa 2" xmlns="http://www.w3.org/2000/svg" xmlns:xlink="http://www.w3.org/1999/xlink" viewBox="0 0 266.35 332.32">
  <defs>
    <style>
      .cls-1 {
        fill: url(#Degradado_sin_nombre_12);
        stroke: #754e11;
      }

      .cls-1, .cls-2, .cls-3, .cls-4, .cls-5, .cls-6, .cls-7, .cls-8, .cls-9 {
        stroke-miterlimit: 10;
        stroke-width: 5px;
      }

      .cls-2 {
        fill: url(#Degradado_sin_nombre_12-7);
      }

      .cls-2, .cls-3, .cls-4, .cls-5, .cls-6, .cls-7, .cls-8, .cls-9 {
        stroke: #2a1d11;
      }

      .cls-3 {
        fill: url(#Degradado_sin_nombre_12-4);
      }

      .cls-4 {
        fill: url(#Degradado_sin_nombre_12-3);
      }

      .cls-5 {
        fill: url(#Degradado_sin_nombre_12-5);
      }

      .cls-6 {
        fill: url(#Degradado_sin_nombre_12-2);
      }

      .cls-7 {
        fill: url(#Degradado_sin_nombre_12-9);
      }

      .cls-8 {
        fill: url(#Degradado_sin_nombre_12-6);
      }

      .cls-9 {
        fill: url(#Degradado_sin_nombre_12-8);
      }
    </style>
    <linearGradient id="Degradado_sin_nombre_12" data-name="Degradado sin nombre 12" x1="132.02" y1="46.02" x2="134.54" y2="308.27" gradientUnits="userSpaceOnUse">
      <stop offset="0" stop-color="#cb9904"/>
      <stop offset="1" stop-color="#a45e11"/>
    </linearGradient>
    <linearGradient id="Degradado_sin_nombre_12-2" data-name="Degradado sin nombre 12" x1="18.25" y1="179.32" x2="249.97" y2="179.32" xlink:href="#Degradado_sin_nombre_12"/>
    <linearGradient id="Degradado_sin_nombre_12-3" data-name="Degradado sin nombre 12" x1="67.62" y1="73.12" x2="196.82" y2="73.12" xlink:href="#Degradado_sin_nombre_12"/>
    <linearGradient id="Degradado_sin_nombre_12-4" data-name="Degradado sin nombre 12" x1="33.27" y1="148.38" x2="233.95" y2="148.38" xlink:href="#Degradado_sin_nombre_12"/>
    <linearGradient id="Degradado_sin_nombre_12-5" data-name="Degradado sin nombre 12" x1="78.02" y1="225.11" x2="117.49" y2="225.11" xlink:href="#Degradado_sin_nombre_12"/>
    <linearGradient id="Degradado_sin_nombre_12-6" data-name="Degradado sin nombre 12" x1="152.2" y1="224" x2="191.16" y2="224" xlink:href="#Degradado_sin_nombre_12"/>
    <linearGradient id="Degradado_sin_nombre_12-7" data-name="Degradado sin nombre 12" x1="58.85" y1="110.72" x2="112.05" y2="110.72" xlink:href="#Degradado_sin_nombre_12"/>
    <linearGradient id="Degradado_sin_nombre_12-8" data-name="Degradado sin nombre 12" x1="149.62" y1="110.72" x2="202.82" y2="110.72" xlink:href="#Degradado_sin_nombre_12"/>
    <linearGradient id="Degradado_sin_nombre_12-9" data-name="Degradado sin nombre 12" x1="121.08" y1="154.18" x2="145.36" y2="154.18" xlink:href="#Degradado_sin_nombre_12"/>
  </defs>
  <rect class="cls-1" x="2.5" y="2.5" width="261.35" height="327.32" rx="26.33" ry="26.33"/>
  <path class="cls-6" d="M23.51,184.06s-18.5-34.69,13.88-89.04l32.38-54.35h124.89s52.04,83.26,54.35,97.14,2.31,43.94-21.97,75.17c-24.28,31.22-51.71,107.03-92.93,104.98S23.51,184.06,23.51,184.06Z"/>
  <polyline class="cls-4" points="196.82 48.34 131.38 97.9 67.62 49.34"/>
  <path class="cls-3" d="M33.27,108.66l36.74,43.06c6.81,7.98,15.21,14.43,24.68,18.95l36.53,17.43,32.65-13.67c11.25-4.71,21.35-11.8,29.61-20.78l40.47-44"/>
  <path class="cls-5" d="M117.49,181.55s-3.62,40.09-14.02,52.81-25.44,34.31-25.44,34.31"/>
  <path class="cls-8" d="M152.2,179.32s8.89,46.56,12.36,52.34,26.6,37.01,26.6,37.01"/>
  <polygon class="cls-2" points="58.85 91.35 93.54 91.35 112.05 130.09 85.45 130.09 58.85 96.56 58.85 91.35"/>
  <polygon class="cls-9" points="202.82 91.35 168.13 91.35 149.62 130.09 176.22 130.09 202.82 96.56 202.82 91.35"/>
  <polygon class="cls-7" points="133.8 126.82 121.08 150.91 133.8 181.55 145.36 148.59 133.8 126.82"/>
</svg>